<svg xmlns="http://www.w3.org/2000/svg" viewBox="0 0 100 100" enable-background="new 0 0 100 100"><circle fill="#24396d" cx="50" cy="50" r="50"/><path fill="#1b3460" d="m70.17 20.722c-27-17.482-47.869 7.414-47.869 7.414l-.175 2.683-.5-4.01-21.585 21.584c-.426 13.326 4.434 26.791 14.606 36.965 10.223 10.223 23.771 15.08 37.16 14.602l23.272-23.273 6.528-11.555c13.19-25.574-11.439-44.41-11.439-44.41"/><g fill-rule="evenodd"><path fill="#fff4e1" d="m49.988 13.37c20.12-.034 36.564 16.341 36.645 36.38.081 20.19-16.11 36.801-36.537 36.879-20.291.078-36.686-16.334-36.73-36.617-.045-20.22 16.334-36.608 36.622-36.642m-11.01 24.319c-.044-.018-.087-.037-.13-.054-.134.218-.29.427-.399.657-.881 1.849-.795 3.624.401 5.325.096.136.122.449.031.568-1 1.328-.799 2.687-.091 4.02 1.096 2.069 2.97 3.196 5.08 3.983 2.542.945 5.2 1.191 7.887 1.172 2.645-.018 5.256.223 7.82.895 2.578.672 4.955 1.754 7.03 3.443 3.217 2.619 5.063 6.03 5.685 10.1.303 1.99.294 3.988-.244 5.951-.186.676-.387 1.344-.593 2.055 9.706-7.463 16.1-23.17 9.685-38.655-6.559-15.832-22.375-21.984-33.837-20.535.164.573.326 1.144.516 1.807-.496-.502-.814-.987-1.263-1.249-1.223-.711-2.795-.373-3.65.692-.833 1.037-.83 2.55.185 3.58.625.635 1.44 1.111 2.231 1.547 1.031.567 2.128 1.013 3.186 1.533.275.136.509.358.771.546.758-1.688 1.148-2.196 1.873-2.417-.781 1.25-.479 2.365.38 3.391.299.358.639.694 1.01.977 2.01 1.539 4.304 2.37 6.787 2.748.642.098 1.289.221 1.903.427.811.271 1.294.956 1.271 1.693-.023.822-.467 1.365-1.204 1.689-.142.063-.282.129-.431.196.031.099.036.165.068.208.101.128.19.278.32.369 1.133.791 2.24 1.622 3.418 2.339 1.586.968 3.228 1.85 5.113 2.106 1.051.143 2.107.242 3.158.391.779.111 1.297.596 1.549 1.319.236.679.021 1.283-.464 1.798-.067.071-.128.149-.181.212.779 1.602.531 3.054-.683 3.978-.725-1.01-1.718-1.208-2.888-.986.46.606.914 1.13 1.285 1.706 1.242 1.937 1.902 4.125 2.348 6.336.42 2.088 2.963 3.777 5.266 3.314 1.713-.346 3.066-2.535 2.545-4.201-.123-.396-.386-.75-.612-1.174 1.319.994 1.452 3.08.493 4.547-1.019 1.553-2.736 2.191-4.536 1.686-.673-.191-1.327-.438-2.079-.686.744 2.115 2.248 3.275 4.263 3.912-.152.08-.252.088-.348.078-.223-.027-.446-.057-.666-.096-2.031-.367-3.386-1.629-4.143-3.449-.685-1.65-1.163-3.387-1.694-5.096-.427-1.367-.961-2.67-1.865-3.768-.074.007-.098.002-.113.012-.158.092-.314.187-.472.282-1.354.822-2.774 1.411-4.404 1.087-.679-.135-1.349-.329-2.01-.537-.977-.306-1.941-.498-2.866.043-.075-.052-.119-.068-.14-.1-.078-.119-.148-.243-.221-.366-1.355-2.309-3.073-4.225-5.471-5.539-2.618-1.435-5.171-1.96-7.822-.139-.601.413-1.229.837-1.908 1.075-1.875.653-3.521.057-4.877-1.258-1.371-1.327-1.834-2.994-1.415-4.88.047-.204.11-.408.164-.614m-15.594 15.401c-1.824.373-3.407-.041-4.751-1.275.116-.062.214-.055.306-.027 1.111.326 2.11.072 2.975-.652 1.266-1.06 1.88-2.475 1.879-4.094-.001-1.854-.103-3.711-.232-5.561-.151-2.171-.232-4.296 1.617-5.9-1.351-1.387-1.879-2.445-1.598-3.371.067.125.1.201.144.267.784 1.177 1.91 1.559 3.235 1.093.969-.342 1.666-1.038 2.209-1.86.842-1.274 1.604-2.602 2.417-3.896.792-1.259 1.624-2.481 3.53-2.434-1.453-1.288-2.195-2.695-1.652-4.525-.125 0-.169-.011-.204.002-.077.028-.15.063-.22.104-3.572 2.132-6.692 4.789-9.288 8.05-3.728 4.681-6.079 9.974-6.964 15.893-.906 6.06-.284 11.974 2.06 17.65.703 1.703 1.576 3.363 2.588 4.9.786 1.195 1.863 2.215 2.893 3.229 2.854 2.812 6.01 5.205 9.732 6.775 1.284.541 2.63.928 4.052.609 1.544-.348 2.292-1.449 2.632-2.9.3-1.277-.283-2.197-1.297-2.854-1.042-.676-2.148-1.25-3.213-1.891-.753-.453-1.341-1.062-1.599-1.932-.134-.453-.257-.906-.42-1.484-.607 1.162-1.3 2.092-2.43 2.617-1.09.506-2.216.625-3.388.477.125-.148.265-.217.408-.283.966-.434 1.76-1.07 2.13-2.082.551-1.506.633-4.334-1.146-5.992-.432-.402-.9-.766-1.344-1.156-1.393-1.219-2.812-2.41-4.164-3.672-1-.939-1.329-2.123-.903-3.469.03-.088.006-.191.006-.353m46.29-5.736c-.939-1.17-1.911-2.157-3.184-2.805-1.418 2-1.549 2.127-2.215 2.144.207-.302.439-.586.613-.905.525-.955.232-1.997-.652-2.583-.61-.405-1.212-.835-1.754-1.324-1.088-.984-2.096-2.06-3.205-3.02-1.968-1.701-4.166-2.482-6.704-1.328-.786.358-1.471.883-2 1.625 3.621 1.157 4.471 1.559 6.502 3.343 1.07.94 2.025 2.01 3.075 2.977 1.71 1.574 3.708 2.59 6.04 2.85 1.243.139 2.435-.043 3.491-.976m-28.747-29.577c-.042-.051-.084-.102-.125-.152-1.092.381-2.185.761-3.333 1.161.227.334.377.555.527.776-.219.016-.35-.068-.492-.119-.665-.238-1.293-.137-1.845.289-.513.397-.826.941-.708 1.596.174.968.628 1.854 1.622 2.122 1.388.375 2.823.571 4.331.862-1.152-2.236-1.56-4.394.023-6.535m16.331 15.56c.016-.046.029-.092.043-.138-.111-.073-.217-.166-.338-.22-1.222-.554-2.447-1.102-3.67-1.653-.648-.292-1.287-.609-1.943-.881-1.073-.443-1.989.186-1.865 1.262.069.603.485 1.025 1.341 1.109 2.14.21 4.287.352 6.432.521m13.435 8.252c.01-.062.02-.125.029-.187-.574-.321-1.148-.644-1.725-.962-.397-.219-.729-.133-.891.29-.161.42.058.794.457.838.704.077 1.419.021 2.13.021"/><g fill="#f2dcc7"><path d="m81.14 37.16c6.416 15.489.021 31.19-9.685 38.655.206-.711.407-1.379.593-2.055.538-1.963.547-3.961.244-5.951-.621-4.072-2.468-7.482-5.685-10.1-2.075-1.689-4.452-2.771-7.03-3.443-2.564-.672-5.176-.912-7.82-.895-1.609.012-3.207-.076-4.777-.35l-17.1 17.11c.65-.057 1.288-.209 1.912-.498 1.129-.525 1.823-1.455 2.43-2.617.163.578.286 1.031.42 1.484.258.869.846 1.479 1.599 1.932 1.065.641 2.171 1.215 3.213 1.891 1.014.656 1.597 1.576 1.297 2.854-.34 1.451-1.088 2.553-2.632 2.9-1.422.318-2.768-.068-4.052-.609-2.62-1.107-4.958-2.627-7.112-4.41l-2.862 2.863c6.645 6.656 15.834 10.76 26 10.721 20.432-.078 36.618-16.686 36.537-36.879-.039-9.984-4.143-19.06-10.738-25.646l-2.082 2.082c2.956 2.948 5.507 6.572 7.329 10.968"/><path d="m62.48 41.881c.542.489 1.144.919 1.754 1.324.885.586 1.178 1.628.652 2.583-.174.319-.406.603-.613.905.666-.017.797-.142 2.215-2.144 1.272.648 2.244 1.635 3.184 2.805-1.056.933-2.248 1.115-3.49.977-2.328-.26-4.326-1.276-6.04-2.85-.976-.898-1.878-1.879-2.858-2.77l-1.428 1.427c1.875 1.267 3.295 2.944 4.449 4.91.072.123.143.247.221.366.021.031.064.047.14.1.925-.541 1.89-.349 2.866-.043.66.208 1.33.402 2.01.537 1.63.324 3.05-.265 4.404-1.087.157-.095.313-.189.472-.282.016-.01.039-.005.113-.012.904 1.098 1.438 2.401 1.865 3.768.531 1.709 1.01 3.445 1.694 5.096.757 1.82 2.111 3.082 4.143 3.449.22.039.443.068.666.096.096.01.195.002.348-.078-2.02-.637-3.519-1.797-4.263-3.912.752.248 1.406.494 2.079.686 1.8.506 3.518-.133 4.536-1.686.959-1.467.826-3.553-.493-4.547.227.424.489.777.612 1.174.521 1.666-.832 3.855-2.545 4.201-2.303.463-4.846-1.227-5.266-3.314-.445-2.211-1.105-4.399-2.348-6.336-.371-.576-.825-1.1-1.285-1.706 1.17-.222 2.163-.019 2.888.986 1.214-.924 1.462-2.376.683-3.978.053-.063.113-.142.181-.212.484-.515.7-1.12.464-1.798-.252-.723-.77-1.208-1.549-1.319-1.051-.149-2.107-.248-3.158-.391-1.886-.256-3.527-1.138-5.113-2.106-.282-.171-.551-.364-.826-.546l-3.607 3.607c.744.706 1.478 1.43 2.24 2.12m5.625-1.151c.161-.423.493-.509.891-.29.576.319 1.15.642 1.725.962-.01.062-.02.124-.029.187-.711 0-1.427.055-2.129-.021-.4-.044-.619-.417-.458-.838"/></g></g></svg>